<?xml version="1.0" encoding="UTF-8"?>
<svg version="1.1" xmlns="http://www.w3.org/2000/svg" width="512" height="512">
<path d="M0 0 C0.79148437 0.24669434 1.58296875 0.49338867 2.3984375 0.74755859 C34.85558883 11.17198673 61.4022633 33.70051913 77 64 C91.17527166 93.18072028 94.17663809 127.58064952 84.15869141 158.60546875 C79.73201994 171.173928 74.25947743 186.06536847 64 195 C59.53198469 195.79785988 57.75249495 195.51734028 54 192.9375 C52 190 52 190 52.11328125 186.75390625 C53.10054379 182.57434985 54.85050042 179.52374607 57.1875 176 C72.00021917 152.36143028 76.24784601 123.72178062 70.47314453 96.51806641 C66.2364294 78.7043677 58.31571019 62.58006067 46 49 C45.48695313 48.33484375 44.97390625 47.6696875 44.4453125 46.984375 C28.41962183 26.557847 0.65320582 15.63384024 -24.33984375 12.59375 C-51.67515328 10.02650642 -79.77888977 17.97109988 -101.375 35.0625 C-102.92091041 36.3699989 -104.46292752 37.68212271 -106 39 C-106.6496875 39.49371094 -107.299375 39.98742188 -107.96875 40.49609375 C-127.79763592 56.13978448 -139.49841593 83.62906046 -142.4375 108.125 C-144.51055254 129.58262327 -140.54333995 149.75827424 -131 169 C-130.25556641 170.52947266 -130.25556641 170.52947266 -129.49609375 172.08984375 C-126.07881805 178.72885621 -121.85479093 184.34802016 -117 190 C-116.32195312 190.82371094 -115.64390625 191.64742187 -114.9453125 192.49609375 C-97.14010229 213.3992801 -70.95299648 224.99177449 -43.9375 227.75 C-42.29270981 227.85186767 -40.64674025 227.93708467 -39 228 C-38.30648437 228.03996094 -37.61296875 228.07992187 -36.8984375 228.12109375 C-15.52738127 228.80144573 9.69373039 222.14431091 26.5 208.5625 C30.34951534 205.46929121 33.02912325 204.75553065 38 205 C41.70221989 207.46814659 42.77310132 209.05749779 43.8125 213.375 C42.44610703 219.47121477 38.40338339 221.83261801 33.29248047 225.08740234 C14.96703954 236.35608036 -5.30418644 244 -27 244 C-27 252.58 -27 261.16 -27 270 C-25.14299469 269.99111755 -23.28598938 269.98223511 -21.37271118 269.9730835 C-3.86364594 269.89196151 13.64538119 269.83177643 31.15459251 269.79275131 C40.15603576 269.77215397 49.15733842 269.74408766 58.15869141 269.69824219 C66.00718586 269.65828759 73.85557845 269.63254664 81.70417178 269.62364602 C85.85734651 269.61844582 90.01022993 269.60628297 94.163311 269.57707977 C98.07855056 269.54977407 101.99338092 269.5415853 105.90870667 269.54756927 C107.33970494 269.54647577 108.770718 269.5386123 110.20163345 269.5231781 C120.38426761 269.41880445 128.91094139 270.2651552 136.875 277.0625 C144.96068278 286.10541795 144.6440002 297.78512666 144.75 309.1875 C144.77822246 310.72724614 144.80815841 312.26696186 144.83984375 313.80664062 C144.91295543 317.53761789 144.96298148 321.26846935 145 325 C146.10734497 325.37547974 146.10734497 325.37547974 147.23706055 325.75854492 C148.70332886 326.27058472 148.70332886 326.27058472 150.19921875 326.79296875 C151.16432373 327.12578857 152.12942871 327.4586084 153.1237793 327.80151367 C162.74965114 331.81249787 169.74309211 339.67155872 173.8125 349.0625 C178.12741834 359.68920828 178.34161996 370.95084243 173.9296875 381.578125 C171.05357044 387.61977969 167.73096917 392.26903083 163 397 C163.56847656 397.4125 164.13695312 397.825 164.72265625 398.25 C177.63808526 407.90961969 185.66724001 419.90776904 188 436 C188.28615351 440.15919125 188.32751435 444.30454842 188.3359375 448.47265625 C188.3425943 449.63574814 188.3492511 450.79884003 188.35610962 451.99717712 C188.36617991 454.44186839 188.37092839 456.88658684 188.37060547 459.33129883 C188.37499153 463.05531103 188.41140865 466.77814898 188.44921875 470.50195312 C188.45508562 472.88801682 188.45905588 475.27408609 188.4609375 477.66015625 C188.47530853 478.76351822 188.48967957 479.86688019 188.50448608 481.00367737 C188.45632224 489.20804487 186.95423835 495.40700741 181.6875 501.8125 C176.04693974 506.4036537 172.04616326 508.49877436 164.72290039 508.51757812 C163.687257 508.52809204 163.687257 508.52809204 162.63069153 508.53881836 C160.3692593 508.55629086 158.10909915 508.54481416 155.84765625 508.53125 C154.26256574 508.53394835 152.67747685 508.53783362 151.09239197 508.54284668 C147.77798632 508.5487274 144.46401334 508.5402265 141.1496582 508.52148438 C136.91851054 508.49871386 132.68837902 508.51181414 128.45726871 508.53577423 C125.1859534 508.55028716 121.91487558 508.54560093 118.64355278 508.53526306 C117.08436396 508.53260994 115.52515301 508.53581535 113.96599007 508.54518127 C96.7637906 508.62584299 96.7637906 508.62584299 89.9765625 502.03515625 C89.53054688 501.38417969 89.08453125 500.73320312 88.625 500.0625 C88.16351563 499.41410156 87.70203125 498.76570313 87.2265625 498.09765625 C84.19003848 492.90461995 83.66930641 488.32433099 83.62890625 482.375 C83.61987778 481.5504834 83.6108493 480.7259668 83.60154724 479.87646484 C83.58708173 478.1383831 83.57816722 476.40024736 83.57446289 474.66210938 C83.56253678 472.00818364 83.51329414 469.35656265 83.46289062 466.703125 C83.45342868 465.01042796 83.44619255 463.31771672 83.44140625 461.625 C83.42187393 460.83528809 83.40234161 460.04557617 83.38221741 459.23193359 C83.41669855 455.00940831 83.65079746 453.44628194 86.34741211 450 C89 448 89 448 92 447.375 C96.09659153 448.22845657 97.41284139 449.73769674 100 453 C100.47166676 455.87780716 100.65392914 458.172809 100.6015625 461.0390625 C100.61357193 462.18307022 100.61357193 462.18307022 100.62582397 463.35018921 C100.6488292 465.77567293 100.63944913 468.19947216 100.625 470.625 C100.62115286 473.05735152 100.6245668 475.48896591 100.64559937 477.92123413 C100.65769463 479.43146341 100.65500859 480.94190012 100.63589478 482.45205688 C100.63959298 486.4267339 100.63959298 486.4267339 102.33349609 489.92333984 C105.70093895 492.09890723 108.69308177 492.13478288 112.58544922 492.16113281 C114.30270706 492.17554413 114.30270706 492.17554413 116.05465698 492.19024658 C117.91092209 492.1966214 117.91092209 492.1966214 119.8046875 492.203125 C121.0759549 492.20882507 122.34722229 492.21452515 123.65701294 492.22039795 C126.34868958 492.22985134 129.04025463 492.23674656 131.73193359 492.24023438 C135.17412799 492.24571719 138.61592645 492.26974499 142.05799675 492.29820633 C145.34853023 492.32135463 148.63908399 492.3232837 151.9296875 492.328125 C153.16314911 492.3404718 154.39661072 492.3528186 155.66744995 492.36553955 C157.39416428 492.3610379 157.39416428 492.3610379 159.15576172 492.35644531 C160.16597382 492.36009094 161.17618591 492.36373657 162.2170105 492.36749268 C165.47638218 491.93709392 167.35844249 490.92682283 170 489 C171.18787881 486.62424238 171.14543163 485.13283368 171.17700195 482.48120117 C171.18983719 481.54229538 171.20267242 480.60338959 171.21589661 479.6360321 C171.22328354 478.6153212 171.23067047 477.59461029 171.23828125 476.54296875 C171.246353 475.4890242 171.25442474 474.43507965 171.26274109 473.34919739 C171.27659813 471.10887298 171.287313 468.86852732 171.29516602 466.62817383 C171.31223893 463.23932129 171.35609372 459.85148038 171.40039062 456.46289062 C171.59446916 435.78427104 171.59446916 435.78427104 161.9765625 417.93359375 C154.72168186 410.8364279 146.16460177 407.00676908 136 406.625 C126.28089556 407.00465252 118.20891027 410.45745958 111 417 C109.0094539 419.54241835 107.25022218 422.10704752 105.5703125 424.86328125 C103.84691018 427.20830878 102.73301129 428.06266665 100 429 C96.64794489 428.82357605 94.02608699 428.56269287 91.0625 426.9375 C89.19731119 423.53627334 89.06758973 420.66347001 90 417 C94.10032867 409.61517032 100.29148105 401.85425947 108 398 C106.66705944 395.11830945 105.13587717 392.82347739 103.125 390.375 C95.98340838 381.03330925 94.22241055 370.50544397 95 359 C96.80032634 348.64049503 102.54725747 338.37063316 111 332 C116.49739066 328.76882091 121.7136439 326.15728205 128 325 C127.95566591 320.69424254 127.88564793 316.38987403 127.79248047 312.08496094 C127.7643689 310.62251295 127.74310569 309.1599158 127.72900391 307.69726562 C127.70743581 305.58646831 127.66072344 303.47744571 127.609375 301.3671875 C127.58842773 300.09987793 127.56748047 298.83256836 127.54589844 297.52685547 C126.91077663 293.42355957 125.57973685 291.21652262 123 288 C120.29438159 286.6471908 118.17133888 286.85972874 115.14083862 286.84178162 C113.89279449 286.8319928 112.64475037 286.82220398 111.35888672 286.81211853 C109.9682621 286.80621396 108.57763708 286.80040354 107.18701172 286.79467773 C105.72860433 286.78510177 104.27019974 286.77509186 102.8117981 286.76467896 C98.84511871 286.73759328 94.87842739 286.71660359 90.91170645 286.69667697 C86.76900641 286.67483997 82.62634334 286.64744012 78.4836731 286.62062073 C70.63558155 286.57066287 62.78746952 286.52573554 54.93933785 286.48259836 C46.00594251 286.43325239 37.07258426 286.37832449 28.13922477 286.32291877 C9.75951604 286.20905125 -8.62022671 286.10295957 -27 286 C-26.67 298.87 -26.34 311.74 -26 325 C-22.37 326.32 -18.74 327.64 -15 329 C-5.1037363 335.40346475 2.26771798 343.75358625 5.25 355.3125 C7.35992411 366.53346006 6.10538861 377.35511211 0.0234375 387.19921875 C-2.4712579 390.66911326 -4.97607973 393.97607973 -8 397 C-7.443125 397.40089844 -6.88625 397.80179687 -6.3125 398.21484375 C6.41484129 407.69585306 14.48082301 419.09869698 17 435 C17.28538033 439.21110552 17.30418015 443.4091822 17.30078125 447.62890625 C17.30506638 448.8179808 17.3093515 450.00705536 17.31376648 451.23216248 C17.31948425 453.73411423 17.32002898 456.23608261 17.31567383 458.73803711 C17.31250692 462.55416238 17.33603038 466.36951683 17.36132812 470.18554688 C17.36360075 472.62499903 17.36430478 475.06445325 17.36328125 477.50390625 C17.372491 478.63744034 17.38170074 479.77097443 17.39118958 480.93885803 C17.34690835 488.55619555 16.36946467 494.08126997 12.375 500.6875 C4.17212168 508.6745131 -4.52376342 508.71887205 -15.41796875 508.59375 C-17.0049887 508.59203597 -18.59201148 508.59210754 -20.17903137 508.59387207 C-23.48999458 508.59222615 -26.80027468 508.57365835 -30.11108398 508.54199219 C-34.34450777 508.50221875 -38.57704308 508.49796274 -42.8106184 508.50545502 C-46.08185395 508.50853025 -49.35289152 508.49638623 -52.62407875 508.47932434 C-54.18490673 508.4723201 -55.74575711 508.46916667 -57.30660057 508.47001648 C-59.48890861 508.46820971 -61.67016918 508.44675829 -63.85229492 508.41992188 C-65.09089767 508.41150269 -66.32950043 508.4030835 -67.6056366 508.39440918 C-73.37018433 507.72459565 -77.83121297 504.94937719 -82 501 C-85.68580564 495.70629257 -87.11352063 491.15427355 -87.16113281 484.77929688 C-87.17074036 483.73721069 -87.1803479 482.69512451 -87.19024658 481.62145996 C-87.1966214 479.93711853 -87.1966214 479.93711853 -87.203125 478.21875 C-87.20882507 477.05428345 -87.21452515 475.88981689 -87.22039795 474.69006348 C-87.22984602 472.22209582 -87.23638116 469.75411555 -87.24023438 467.28613281 C-87.24989144 463.54208758 -87.28089744 459.79860279 -87.3125 456.0546875 C-87.31903534 453.65104491 -87.32428372 451.24739841 -87.328125 448.84375 C-87.3404718 447.73704956 -87.3528186 446.63034912 -87.36553955 445.4901123 C-87.32063414 429.52006105 -82.3117132 415.77141762 -71.2578125 404.13671875 C-68.34539509 401.38050366 -65.37747438 399.15583471 -62 397 C-62.44730469 396.53851563 -62.89460937 396.07703125 -63.35546875 395.6015625 C-72.115338 386.15061614 -76.54881534 375.75175317 -76.24609375 362.859375 C-75.27707513 351.60030152 -70.36724207 341.37914128 -62.12890625 333.6015625 C-56.74019195 329.54766734 -50.52132645 326.63033161 -44 325 C-43.67 312.13 -43.34 299.26 -43 286 C-62.21063492 286.01770949 -81.42086601 286.05602028 -100.63135052 286.13209057 C-109.55105513 286.16674817 -118.47060509 286.19209709 -127.39038086 286.19555664 C-135.16460789 286.19859547 -142.93855952 286.21907489 -150.71268016 286.26052457 C-154.82934975 286.28186384 -158.94562773 286.29445058 -163.06235313 286.28615379 C-166.93756452 286.27861927 -170.81198207 286.2944108 -174.68704796 286.32806015 C-176.10881206 286.33630083 -177.53065499 286.33603449 -178.95241165 286.32659721 C-180.89496477 286.31498005 -182.83763197 286.33704864 -184.78007507 286.36076355 C-185.866869 286.36352893 -186.95366293 286.36629431 -188.07339001 286.36914349 C-191.9648507 287.20798205 -193.47689107 288.99949722 -196 292 C-197.48679725 294.97359449 -197.11112605 297.66299179 -197.09765625 300.9765625 C-197.09553383 302.00443375 -197.09553383 302.00443375 -197.09336853 303.05307007 C-197.08776675 305.24375761 -197.07521406 307.4343433 -197.0625 309.625 C-197.05748522 311.10937352 -197.05292228 312.59374865 -197.04882812 314.078125 C-197.03779677 317.71878315 -197.02053099 321.35938164 -197 325 C-196.25524414 325.2568457 -195.51048828 325.51369141 -194.74316406 325.77832031 C-193.26928223 326.29797363 -193.26928223 326.29797363 -191.765625 326.828125 C-190.79399414 327.1674707 -189.82236328 327.50681641 -188.82128906 327.85644531 C-178.21136567 332.15697155 -171.40076415 341.19229129 -166.9453125 351.38671875 C-163.02702658 362.21867447 -164.5042416 373.58808417 -169 384 C-170.67039134 386.76414424 -172.4408313 389.32404577 -174.4140625 391.87890625 C-175.89210579 393.85569813 -176.97482824 395.7618775 -178 398 C-177.1646875 398.58394531 -177.1646875 398.58394531 -176.3125 399.1796875 C-163.67195269 408.44657522 -156.78086324 419.93087851 -153.96875 435.2734375 C-154.00774714 438.67593823 -155.00438736 440.2886213 -157 443 C-159.58546056 444.96138387 -160.78795025 445.01298264 -164.0625 444.8125 C-167.27533337 443.92384396 -168.03363699 443.5989731 -170 441 C-170.83432689 438.45701736 -171.56427674 435.9562329 -172.25 433.375 C-175.14037146 423.46737493 -179.65542998 416.68694103 -188.6171875 411.21875 C-197.47334981 406.68904076 -206.43139237 405.62418689 -216.0625 408.125 C-225.28083609 411.24594137 -231.96543905 416.69609534 -237 425 C-242.25381517 435.96991349 -241.57882871 447.82177265 -241.46655273 459.69604492 C-241.43729493 463.08626271 -241.44603593 466.47494134 -241.45898438 469.86523438 C-241.45275453 472.02604926 -241.44436953 474.18685925 -241.43359375 476.34765625 C-241.43652939 477.35804459 -241.43946503 478.36843292 -241.44248962 479.40943909 C-241.42980545 480.34819382 -241.41712128 481.28694855 -241.40405273 482.25415039 C-241.39864975 483.07653702 -241.39324677 483.89892365 -241.38768005 484.74623108 C-240.9034089 487.56153009 -239.94674415 488.93188032 -238 491 C-234.87852799 492.04049067 -232.68933873 492.13288753 -229.41455078 492.14526367 C-228.26971222 492.15164352 -227.12487366 492.15802338 -225.94534302 492.16459656 C-224.70783295 492.16570938 -223.47032288 492.1668222 -222.1953125 492.16796875 C-220.9240451 492.17129715 -219.65277771 492.17462555 -218.34298706 492.17805481 C-215.65131129 492.18312207 -212.95973646 492.18589526 -210.26806641 492.18530273 C-206.82596014 492.1852012 -203.38406057 492.19884614 -199.94200325 492.21607494 C-196.65144745 492.22989637 -193.36089339 492.22928446 -190.0703125 492.23046875 C-188.83685089 492.23765427 -187.60338928 492.24483978 -186.33255005 492.25224304 C-185.18140717 492.24916641 -184.03026428 492.24608978 -182.84423828 492.24291992 C-181.32892014 492.24505745 -181.32892014 492.24505745 -179.7829895 492.24723816 C-176.80986729 491.98310879 -174.65908271 491.34309548 -172 490 C-170.14488679 486.28977357 -170.71067532 481.50907987 -170.65820312 477.38476562 C-170.51376909 473.51863608 -170.22939701 471.38482722 -168.20703125 467.9921875 C-165.87590009 465.88798061 -165.07663002 465.33534627 -162 465.4375 C-161.34 465.43621094 -160.68 465.43492187 -160 465.43359375 C-156.87876744 466.31753657 -155.85417743 467.30190812 -154 470 C-153.37445378 473.38173844 -153.38270122 476.69382194 -153.4375 480.125 C-153.45393555 481.54534546 -153.45393555 481.54534546 -153.47070312 482.99438477 C-153.68407046 489.86422015 -154.34561465 495.63298148 -159 501 C-164.66061001 506.3081985 -169.00231586 508.10919325 -176.79125977 508.20874023 C-177.477892 508.21852402 -178.16452423 508.2283078 -178.8719635 508.23838806 C-181.14509156 508.26830431 -183.41816059 508.28972359 -185.69140625 508.30859375 C-186.47051802 508.31516558 -187.24962978 508.3217374 -188.052351 508.32850838 C-192.18112243 508.36109454 -196.30986825 508.38554036 -200.4387207 508.4050293 C-203.84242763 508.42279539 -207.2452987 508.45753908 -210.64868164 508.50756836 C-214.76954995 508.56806478 -218.88964746 508.59854551 -223.01093864 508.60820198 C-224.57414662 508.61671245 -226.13733647 508.6354208 -227.70028877 508.6649456 C-237.05200991 508.83200823 -244.54544316 508.39054377 -252 502 C-258.13330294 494.64003647 -258.30831904 487.23416112 -258.30078125 478.05859375 C-258.30506638 476.89932877 -258.3093515 475.74006378 -258.31376648 474.54566956 C-258.31950146 472.09384818 -258.32001619 469.64200979 -258.31567383 467.19018555 C-258.31253154 463.47479438 -258.33592316 459.76021368 -258.36132812 456.04492188 C-258.36360323 453.65364683 -258.36430364 451.26236966 -258.36328125 448.87109375 C-258.372491 447.7758287 -258.38170074 446.68056366 -258.39118958 445.55210876 C-258.29452166 429.08941393 -253.5460571 416.18715908 -242.2578125 404.171875 C-239.3555159 401.38004643 -236.39120816 399.16460096 -233 397 C-234.3303125 395.5459375 -234.3303125 395.5459375 -235.6875 394.0625 C-243.24845247 385.25032608 -247.4066862 375.1978287 -247.2109375 363.55078125 C-246.11620683 350.3126493 -240.61288299 340.46401474 -230.59765625 331.9140625 C-225.7646339 328.35288813 -220.78140696 326.41560889 -215 325 C-214.9906543 324.05793701 -214.98130859 323.11587402 -214.97167969 322.14526367 C-214.92725997 318.59800117 -214.86546964 315.05187401 -214.79248047 311.50512695 C-214.76452314 309.97984578 -214.74318513 308.45442653 -214.72900391 306.92895508 C-214.62344462 296.20764977 -214.42697488 285.50852627 -206.875 277.0625 C-198.29555346 269.73992 -188.94960054 269.42882043 -178.09521484 269.54589844 C-176.61592642 269.54702885 -175.13663576 269.54638928 -173.65734863 269.54412842 C-169.67026433 269.54298787 -165.68366829 269.56638909 -161.69669676 269.59442425 C-157.51939128 269.61954891 -153.34207275 269.62178858 -149.16470337 269.62652588 C-141.26716856 269.63892332 -133.36985711 269.67170081 -125.47242033 269.71192384 C-116.4760188 269.75674258 -107.4796062 269.77865391 -98.48312068 269.79870558 C-79.98861731 269.8404366 -61.49433486 269.91153771 -43 270 C-43 261.42 -43 252.84 -43 244 C-45.97 244 -48.94 244 -52 244 C-84.30811508 239.57183635 -114.13510808 222.3866676 -133.9375 196.5 C-154.55061372 168.80799409 -163.16892643 136.33554702 -158.78125 101.9765625 C-154.11235888 70.20078487 -137.14143037 40.16022504 -111.31298828 20.73095703 C-97.77757565 10.91304306 -83.13063033 3.47790369 -67 -1 C-65.33130859 -1.47953125 -65.33130859 -1.47953125 -63.62890625 -1.96875 C-43.82163772 -6.65480696 -19.40585313 -6.1119774 0 0 Z M-224.30859375 348.0546875 C-229.35230143 353.85553374 -231.30915282 360.330632 -231 368 C-229.5985793 375.13346113 -226.4896838 381.30627483 -220.625 385.75 C-214.34850207 389.87683056 -208.39631037 390.7327614 -201 390 C-194.01720923 388.42085297 -189.10887162 384.75324906 -184.75 379.0625 C-180.88169223 372.29296141 -179.82784256 366.07410436 -181.58203125 358.48046875 C-183.91787559 351.53693147 -187.87022984 346.97529418 -194 343 C-204.98326425 338.22396855 -215.59533799 339.64067487 -224.30859375 348.0546875 Z M-54.08203125 348.62109375 C-58.13206772 353.64445874 -59.61635326 359.266517 -60.5 365.5625 C-59.2838736 373.92336901 -55.90408399 381.02950131 -49.125 386.1875 C-42.86205408 389.82000863 -37.16556944 390.88490466 -30 390 C-21.40378062 387.36128709 -16.26261008 383.0676085 -12.015625 375.21875 C-8.98576431 368.59966973 -9.43676383 362.01428221 -11.8984375 355.2734375 C-14.89492623 349.08919481 -19.592424 344.40730197 -25.90625 341.6875 C-36.65000047 338.15970134 -45.9800167 340.83455587 -54.08203125 348.62109375 Z M116.91796875 348.6953125 C112.35675925 354.1761956 110.24848687 360.65365754 110.61328125 367.7734375 C111.79025099 374.54992996 115.19457171 380.19457171 120 385 C126.65015005 389.67307841 133.00876778 390.84364915 141 390 C149.24264714 387.60781219 154.6380056 382.60433236 158.984375 375.30078125 C161.52268859 369.55052469 161.66034948 363.33126687 160 357.3125 C157.48344095 350.95847307 153.10727236 345.88200442 147.125 342.5625 C135.92801068 337.73918152 125.58390875 340.32079349 116.91796875 348.6953125 Z M-64.3125 420.625 C-72.28684368 432.69367355 -71.62533564 446.20622354 -71.52148438 460.12329102 C-71.49985229 463.58614568 -71.52146178 467.04697021 -71.546875 470.50976562 C-71.54423501 472.7161504 -71.53911685 474.92253392 -71.53125 477.12890625 C-71.53934692 478.16116837 -71.54744385 479.19343048 -71.55578613 480.25697327 C-71.56403379 485.79380198 -71.56403379 485.79380198 -69.15429688 490.61694336 C-65.52741946 492.94539537 -62.6242149 493.12935443 -58.41455078 493.14526367 C-57.26971222 493.15164352 -56.12487366 493.15802338 -54.94534302 493.16459656 C-53.70783295 493.16570938 -52.47032288 493.1668222 -51.1953125 493.16796875 C-49.9240451 493.17129715 -48.65277771 493.17462555 -47.34298706 493.17805481 C-44.65131129 493.18312207 -41.95973646 493.18589526 -39.26806641 493.18530273 C-35.82596014 493.1852012 -32.38406057 493.19884614 -28.94200325 493.21607494 C-25.65144745 493.22989637 -22.36089339 493.22928446 -19.0703125 493.23046875 C-17.83685089 493.23765427 -16.60338928 493.24483978 -15.33255005 493.25224304 C-14.18140717 493.24916641 -13.03026428 493.24608978 -11.84423828 493.24291992 C-10.83402618 493.24434494 -9.82381409 493.24576996 -8.7829895 493.24723816 C-5.78311495 492.98073214 -3.67035381 492.38534048 -1 491 C1.15600487 487.76599269 1.25487238 486.86907503 1.2746582 483.13647461 C1.28419022 482.14791977 1.29372223 481.15936493 1.30354309 480.14085388 C1.30263168 479.07214554 1.30172028 478.00343719 1.30078125 476.90234375 C1.30720894 475.24628868 1.30720894 475.24628868 1.31376648 473.55677795 C1.31951538 471.2156747 1.32000594 468.87455357 1.31567383 466.53344727 C1.31253377 462.97575698 1.3358974 459.41891434 1.36132812 455.86132812 C1.36360324 453.58333438 1.36430363 451.30533841 1.36328125 449.02734375 C1.372491 447.97280502 1.38170074 446.9182663 1.39118958 445.83177185 C1.31880308 434.08707811 -1.75568715 424.66586983 -9.8515625 416.0234375 C-17.67704255 408.69679283 -26.5527857 405.56830782 -37.1875 405.7265625 C-48.33380154 406.81023071 -57.17139531 412.1838937 -64.3125 420.625 Z " fill="#000000" transform="translate(291,4)"/>
<path d="M0 0 C3.37551922 1.7257394 6.68456381 3.54915836 9.98046875 5.42041016 C11.20056809 6.09713719 12.42161491 6.7721585 13.64355469 7.44555664 C16.16532572 8.83692326 18.68244829 10.23624659 21.19726562 11.64013672 C24.87598612 13.685422 28.58637014 15.6666059 32.30859375 17.63134766 C33.47261719 18.24792236 34.63664062 18.86449707 35.8359375 19.49975586 C38.03993363 20.66563557 40.24557272 21.82841664 42.453125 22.98754883 C60.22794701 32.47534495 60.22794701 32.47534495 62.98046875 40.73291016 C63.09156675 43.20505666 63.14807377 45.64979231 63.1574707 48.12255859 C63.1640419 48.87253113 63.1706131 49.62250366 63.17738342 50.39520264 C63.19709577 52.87756453 63.20877505 55.35986594 63.21875 57.84228516 C63.22282553 58.69133675 63.22690105 59.54038834 63.23110008 60.41516876 C63.25195309 64.91007747 63.26625753 69.40495574 63.27563477 73.89990234 C63.28669123 78.53469044 63.32108431 83.16899738 63.36080647 87.80361557 C63.38699571 91.37421541 63.39532869 94.94470106 63.39891624 98.51538849 C63.40377708 100.2233632 63.41537675 101.93133297 63.43395424 103.63921356 C63.45839326 106.03508741 63.4573724 108.42972237 63.45043945 110.82568359 C63.46965454 111.8748999 63.46965454 111.8748999 63.48925781 112.9453125 C63.43248046 118.3549301 61.91680432 121.35276453 58.98046875 125.73291016 C52.810301 131.47727413 44.09824216 134.82871869 36.60546875 138.48291016 C34.10898515 139.7112657 31.61481766 140.94427575 29.12109375 142.17822266 C28.20092972 142.63272293 28.20092972 142.63272293 27.26217651 143.09640503 C21.90527349 145.75059545 16.62533756 148.53613348 11.35546875 151.35791016 C-6.61489763 160.85515319 -6.61489763 160.85515319 -17.01953125 158.73291016 C-20.32647325 157.53072549 -23.36383715 155.96477783 -26.45703125 154.29541016 C-27.31756104 153.8480249 -28.17809082 153.40063965 -29.06469727 152.93969727 C-31.72457858 151.55255616 -34.372175 150.14377666 -37.01953125 148.73291016 C-38.61246947 147.89802614 -40.20619322 147.0646388 -41.80078125 146.23291016 C-44.91358084 144.6070442 -48.01761786 142.9658728 -51.1171875 141.31494141 C-54.62371888 139.45373279 -58.15490424 137.65003152 -61.703125 135.86962891 C-62.65195557 135.3880835 -63.60078613 134.90653809 -64.57836914 134.41040039 C-66.40669967 133.48363415 -68.240289 132.56714398 -70.07983398 131.6628418 C-76.20038832 128.53837129 -80.75068124 125.53946018 -83.01953125 118.73291016 C-83.12556595 116.25529954 -83.17675787 113.80539913 -83.18066406 111.32739258 C-83.18562897 110.57581375 -83.19059387 109.82423492 -83.19570923 109.04988098 C-83.2103175 106.56270431 -83.2171309 104.07559144 -83.22265625 101.58837891 C-83.22840916 99.85826109 -83.23416687 98.12814329 -83.2399292 96.39802551 C-83.25043563 92.76900943 -83.25628052 89.14001548 -83.25976562 85.51098633 C-83.26524715 80.8672201 -83.2892693 76.22374755 -83.31773758 71.58007336 C-83.33638814 68.00522515 -83.34157086 64.43044732 -83.3431015 60.85555458 C-83.34612351 59.14397897 -83.35413678 57.43240446 -83.36728668 55.72087669 C-83.38439669 53.32256296 -83.38245501 50.92496182 -83.37597656 48.52661133 C-83.38979874 47.47200211 -83.38979874 47.47200211 -83.40390015 46.39608765 C-83.35907626 41.08226908 -82.03739513 37.12849369 -78.60180664 33.04980469 C-73.36971671 28.62271518 -67.56764647 25.65734263 -61.45703125 22.60791016 C-59.22425697 21.47185933 -56.99250604 20.33379526 -54.76171875 19.19384766 C-53.63862305 18.62118164 -52.51552734 18.04851563 -51.35839844 17.45849609 C-45.32962826 14.34272046 -39.39154275 11.06268372 -33.45288086 7.77929688 C-10.97426802 -4.60514643 -10.97426802 -4.60514643 0 0 Z M-19.4609375 18.45947266 C-20.18385483 18.84477142 -20.90677216 19.23007019 -21.65159607 19.62704468 C-23.96596113 20.86296485 -26.27396754 22.11026908 -28.58203125 23.35791016 C-30.10832403 24.17506383 -31.63501305 24.99147788 -33.16210938 25.80712891 C-41.13751358 30.07339621 -49.08809088 34.38546578 -57.01953125 38.73291016 C-57.01953125 39.39291016 -57.01953125 40.05291016 -57.01953125 40.73291016 C-56.52951126 40.97680984 -56.03949127 41.22070953 -55.53462219 41.47200012 C-50.42331153 44.01657247 -45.31342451 46.56398662 -40.2043457 49.11303711 C-38.2987833 50.06330779 -36.3928621 51.01285934 -34.48657227 51.96166992 C-31.74269928 53.32752482 -29.00013749 54.69598168 -26.2578125 56.06494141 C-25.40866776 56.48693314 -24.55952301 56.90892487 -23.68464661 57.34370422 C-22.88419418 57.74389267 -22.08374176 58.14408112 -21.2590332 58.55639648 C-20.5121524 58.92866364 -19.76527161 59.30093079 -18.99575806 59.68447876 C-17.01953125 60.73291016 -17.01953125 60.73291016 -14.31713867 62.5871582 C-11.11176123 64.18558944 -9.42919797 63.70763947 -6.01953125 62.73291016 C-3.8367646 61.76821745 -1.69175095 60.71552808 0.41796875 59.60009766 C1.01996094 59.28517365 1.62195313 58.97024963 2.2421875 58.64578247 C4.15917721 57.64096573 6.06992874 56.62492765 7.98046875 55.60791016 C9.85587325 54.61891022 11.73252877 53.63231783 13.609375 52.64605713 C14.85337537 51.99220216 16.09686851 51.33738123 17.33984375 50.68157959 C23.83542151 47.26208174 30.40131135 43.98827521 36.98046875 40.73291016 C36.98046875 40.07291016 36.98046875 39.41291016 36.98046875 38.73291016 C36.00811279 38.21905762 35.03575684 37.70520508 34.03393555 37.17578125 C30.37502155 35.24193927 26.71661507 33.30713882 23.05834961 31.37207031 C21.48459148 30.53978356 19.91070165 29.70774577 18.33666992 28.87597656 C16.80759919 28.0679271 15.27871766 27.25951953 13.75003052 26.45074463 C12.2495844 25.65700995 10.74867135 24.86415731 9.24728394 24.07220459 C4.16090784 21.38236035 -0.86574617 18.60117394 -5.84448242 15.71582031 C-11.09598319 13.34265362 -14.8820305 15.96634364 -19.4609375 18.45947266 Z M-67.01953125 53.73291016 C-67.01953125 73.86291016 -67.01953125 93.99291016 -67.01953125 114.73291016 C-45.23005716 128.68508361 -45.23005716 128.68508361 -18.01953125 138.73291016 C-18.01953125 118.60291016 -18.01953125 98.47291016 -18.01953125 77.73291016 C-26.59953125 73.44291016 -35.17953125 69.15291016 -44.01953125 64.73291016 C-56.10286458 58.34402127 -56.10286458 58.34402127 -61.23388672 55.55810547 C-63.32526593 54.52415234 -63.32526593 54.52415234 -67.01953125 53.73291016 Z M41.078125 55.56884766 C40.27922852 55.96894043 39.48033203 56.3690332 38.65722656 56.78125 C37.79452148 57.21904785 36.93181641 57.6568457 36.04296875 58.10791016 C35.15577148 58.55473145 34.26857422 59.00155273 33.35449219 59.46191406 C26.33848178 63.00962785 19.36912808 66.64385275 12.42602539 70.33203125 C11.69633545 70.71955566 10.96664551 71.10708008 10.21484375 71.50634766 C9.27463379 72.00787354 9.27463379 72.00787354 8.31542969 72.51953125 C4.89164185 74.29872673 1.43159723 76.00734592 -2.01953125 77.73291016 C-2.01953125 97.86291016 -2.01953125 117.99291016 -2.01953125 138.73291016 C1.73487416 137.48144169 4.84267858 136.42682991 8.28588867 134.70166016 C9.07658249 134.30785156 9.86727631 133.91404297 10.68193054 133.50830078 C11.51650284 133.08742188 12.35107513 132.66654297 13.2109375 132.23291016 C14.08317459 131.7965625 14.95541168 131.36021484 15.8540802 130.91064453 C17.68972299 129.99131785 19.52439746 129.07005545 21.3581543 128.14697266 C24.16681307 126.73349176 26.9786386 125.32647593 29.79101562 123.92041016 C31.57701244 123.02495473 33.36282614 122.12913397 35.1484375 121.23291016 C35.98908249 120.81203125 36.82972748 120.39115234 37.69584656 119.95751953 C38.47708389 119.56371094 39.25832123 119.16990234 40.06323242 118.76416016 C40.74906906 118.41933594 41.4349057 118.07451172 42.14152527 117.71923828 C44.22064962 116.64179723 44.22064962 116.64179723 46.98046875 114.73291016 C47.42005748 112.0671484 47.42005748 112.0671484 47.32104492 108.90625 C47.32081833 107.68513519 47.32059174 106.46402039 47.32035828 105.2059021 C47.30503727 103.86854692 47.28938926 102.53119546 47.2734375 101.19384766 C47.26784297 99.82907578 47.26357219 98.46429788 47.26057434 97.09951782 C47.24911415 93.50560909 47.21963746 89.91206349 47.1864624 86.31829834 C47.15578646 82.65186475 47.14207434 78.98537255 47.12695312 75.31884766 C47.09476839 68.12336952 47.04355847 60.9281907 46.98046875 53.73291016 C44.51844814 53.73291016 43.27744809 54.46279054 41.078125 55.56884766 Z " fill="#000000" transform="translate(266.01953125,45.26708984375)"/>
</svg>
